<svg width="50" height="50" viewBox="0 0 50 50" fill="none" xmlns="http://www.w3.org/2000/svg">
<g clip-path="url(#clip0_506_31)">
<path d="M38.3591 13.9664L32.4981 8.16574C32.0648 7.78492 31.441 7.62076 30.9001 7.7657L3.85419 15.0126C3.15872 15.199 2.70617 15.9828 2.89252 16.6783L6.72304 30.974C6.9301 31.7467 7.69323 32.122 8.3887 31.9356L35.4346 24.6887C35.9755 24.5438 36.4336 24.0897 36.6185 23.5433L38.794 15.5892C38.9788 15.0427 38.8132 14.4245 38.3591 13.9664ZM34.2873 17.625C33.4373 17.8527 32.5555 17.3436 32.3277 16.4936C32.0999 15.6436 32.6091 14.7618 33.4591 14.534C34.3091 14.3063 35.1909 14.8154 35.4187 15.6654C35.6464 16.5154 35.1373 17.3972 34.2873 17.625Z" fill="#FBD46D"/>
<path d="M31.9271 38.7973C31.6952 38.8594 31.3862 38.9423 31.1336 38.9271C30.0877 39.0417 29.0361 38.8265 28.2109 38.2194C26.875 37.2522 26.0276 35.3259 26.0923 33.4037C26.2398 31.7905 26.9696 30.187 28.2515 29.0981C29.1884 28.2673 30.4192 27.6062 32.042 27.1714C32.6602 27.0058 33.2784 26.8401 33.8966 26.6745C34.592 26.4881 35.2309 26.3998 35.8284 26.1569C37.4305 25.6448 38.8931 24.9216 40.2937 23.9665C40.9063 23.4711 41.6735 22.9342 41.9301 22.0373C42.2998 20.9443 41.9837 19.4554 41.1115 18.364C40.358 17.4064 39.2802 16.7841 37.9761 16.5538C36.7701 16.38 35.4923 16.5567 34.3125 16.7901C33.9261 16.8936 33.4362 16.6107 33.4099 16.2037C33.3064 15.8173 33.5892 15.3274 33.9963 15.3011C35.3307 15.0264 36.763 14.8083 38.2216 14.9972C39.8762 15.2993 41.3459 16.1478 42.3368 17.3731C43.4878 18.8868 43.9488 20.9166 43.3942 22.556C42.9887 23.8242 41.9745 24.6757 41.2073 25.2125C39.6729 26.2862 38.0764 27.1281 36.2991 27.6044C35.6036 27.7907 34.9082 27.9771 34.2127 28.1634C33.5945 28.3291 33.0329 28.3967 32.4354 28.6396C31.0445 29.0123 30.0247 29.534 29.2217 30.2461C28.2848 31.0769 27.7039 32.3093 27.6074 33.4946C27.5524 34.8345 28.1003 36.2613 29.0235 36.925C29.6528 37.419 30.3897 37.3872 30.8741 37.3402C32.4044 37.1786 33.7428 35.9918 34.3747 34.3317C34.5237 33.9604 34.9459 33.6817 35.3944 33.81C35.8429 33.9383 36.0444 34.3812 35.9161 34.8297C35.2125 36.8403 33.7044 38.3211 31.9271 38.7973Z" fill="#656766"/>
<path d="M9.55564 20.5248L9.94904 21.993L12.4218 21.3304L12.6496 22.1804L10.1768 22.843L10.7773 25.0839L9.84998 25.3324L8.37988 19.8459L12.0118 18.8728L12.2395 19.7228L9.53493 20.4475L9.55564 20.5248Z" fill="#222831"/>
<path d="M17.995 19.2573C18.2434 20.1846 18.002 20.8291 17.2914 21.2679L19.2979 22.8837L18.1388 23.1942L16.3282 21.6917L15.0919 22.0229L15.5888 23.8775L14.6615 24.126L13.1914 18.6395L15.2005 18.1012C16.0505 17.8734 16.7102 17.8623 17.0814 18.0113C17.5506 18.2169 17.8293 18.6391 17.995 19.2573ZM16.9657 20.3613C17.0788 20.1654 17.1712 19.8922 17.0677 19.5058C16.9642 19.1194 16.8248 18.9083 16.5515 18.8159C16.2783 18.7234 15.9485 18.729 15.4849 18.8532L14.3258 19.1638L14.8434 21.0957L16.0025 20.7851C16.4868 20.7381 16.8525 20.5573 16.9657 20.3613Z" fill="#222831"/>
<path d="M22.6962 16.0927L22.924 16.9427L19.9876 17.7295L20.381 19.1977L23.0083 18.4937L23.2361 19.3437L20.6087 20.0477L21.0021 21.5159L24.0158 20.7084L24.2436 21.5584L20.3026 22.6144L18.8325 17.1279L22.6962 16.0927Z" fill="#222831"/>
<path d="M27.8735 14.7054L28.1012 15.5555L25.1648 16.3423L25.5582 17.8105L28.1855 17.1065L28.4133 17.9565L25.786 18.6605L26.1794 20.1287L29.1931 19.3212L29.4208 20.1712L25.4799 21.2272L24.0098 15.7407L27.8735 14.7054Z" fill="#222831"/>
</g>
<defs>
<clipPath id="clip0_506_31">
<rect width="40" height="40" fill="white" transform="translate(0.504883 10.8579) rotate(-15)"/>
</clipPath>
</defs>
</svg>
