<svg width="300" height="40" viewBox="0 0 300 40" fill="none" xmlns="http://www.w3.org/2000/svg">
<g clip-path="url(#clip0_404_59)">
<path d="M105.219 9.32654V39.9887H95.9402V26.9371H79.5916V39.9887H70.1367V9.32654H105.219ZM79.7222 13.8405V22.3837H95.7188V13.8405H79.7222Z" fill="#1D1D1B"/>
<path d="M143.311 40.0001L108.757 17.2218V9.33789L134.208 25.8947V9.33789H143.311V40.0001Z" fill="#1D1D1B"/>
<path d="M181.266 13.8405H169.823V39.9943H160.59V13.8405H149.011L145.076 9.32654H185.201L181.272 13.8405H181.266Z" fill="#1D1D1B"/>
<path d="M217.632 35.4861L221.607 40.0001H186.962V9.33789H221.692L217.763 13.8518H196.241V22.4402H219.614V26.9541H196.241V35.4974H217.626L217.632 35.4861Z" fill="#1D1D1B"/>
<path d="M263.146 40H252.232L235.571 21.1608H251.215V13.8461H228.842L224.793 9.33215H260.318V25.6748H250.511L263.152 40H263.146Z" fill="#1D1D1B"/>
<path d="M300 9.32654V39.9887H290.721V26.9371H274.373V39.9887H264.918V9.32654H300.006H300ZM274.503 13.8405V22.3837H290.5V13.8405H274.503Z" fill="#1D1D1B"/>
<path d="M30.2562 0.676282C30.2562 0.676282 30.3073 0.309982 30.2846 0.186003C30.2619 0.0676601 30.2221 0.0113062 30.154 3.54391e-05C30.0859 -0.0112353 29.5464 0.586116 29.5464 0.586116C29.5464 0.586116 29.376 3.54311e-05 29.0751 0.270534C28.7741 0.541033 28.4504 1.08203 28.4504 1.08203C28.4504 1.08203 25.6054 1.58358 24.7707 1.75264C23.9359 1.9217 23.2318 2.20911 22.363 3.11077C21.4942 4.01243 19.7565 5.03244 19.3476 5.77631C19.3476 5.77631 18.7571 6.01863 18.1608 6.54836C17.5646 7.07809 14.3902 9.18572 13.8337 9.41114C13.2772 9.63092 12.9706 10.2734 10.3528 10.2001C7.73492 10.1268 8.1381 10.4931 4.7423 11.0229C1.34083 11.547 0.0290728 13.2714 0.000679803 15.1705C-0.0277132 17.0696 0.841111 16.5117 1.14208 14.7309C1.14208 14.7309 1.48847 12.2176 5.00352 12.2852C8.51289 12.3528 11.2954 11.0285 10.8695 12.6233C10.4436 14.2181 10.7446 15.5424 10.0404 16.0215C9.33629 16.5061 9.2 16.9344 8.52425 17.1429C7.84849 17.3514 7.95071 17.8248 8.01317 18.2587C8.07564 18.687 8.2176 19.4478 8.42771 19.6845C8.63782 19.9155 9.06371 21.144 9.54071 21.3694C10.0177 21.5948 10.0745 21.3694 10.0745 21.3694C10.0745 21.3694 10.455 22.0739 10.8638 21.5667C10.8638 21.5667 11.9314 21.7076 11.1478 20.8341C11.1478 20.8341 11.9598 20.9355 11.9371 20.789C11.9144 20.6481 11.5566 20.4001 11.3692 20.3889C11.1818 20.3776 10.8922 20.062 10.5061 20.1804C10.5061 20.1804 10.1654 19.2731 10.0745 19.0646C9.98364 18.8617 10.2165 18.8222 10.3187 18.7602C10.4209 18.6983 10.6878 18.3038 10.6878 18.3038C10.6878 18.3038 13.6236 17.2612 14.1574 15.8862C14.6969 14.5112 16.2074 13.6377 16.2074 13.6377C16.2074 13.6377 18.6151 13.1868 19.1943 12.2345C19.1943 12.2345 22.715 11.4737 24.5776 8.54329C24.5776 8.54329 26.02 8.93776 26.3664 8.91522C26.7185 8.89268 27.2863 9.36042 27.0421 9.72672C26.798 10.093 26.7639 10.758 26.9513 10.8087C26.9513 10.8087 26.9626 11.3892 27.3545 11.3159C27.3545 11.3159 27.911 11.6089 28.0132 11.0623C28.0132 11.0623 28.3482 10.82 28.3596 10.2903C28.3709 9.76617 28.6378 9.95777 28.5015 9.54639C28.5015 9.54639 28.5299 8.54329 28.0075 7.92339C28.0075 7.92339 28.3596 7.68671 28.6662 7.8614C28.9729 8.0361 28.9956 7.71488 29.342 7.9403C29.6884 8.16572 30.3811 8.39677 30.5629 8.28406C30.7446 8.17135 31.1307 8.31224 31.1648 7.97411C31.1932 7.63599 31.6815 7.47256 31.3976 7.14007C31.3976 7.14007 31.4885 6.61035 31.0001 6.69488C30.5118 6.77941 30.9093 5.82139 29.6429 6.3793C29.6429 6.3793 29.4215 6.43002 29.2057 6.27786C28.9899 6.1257 27.4737 5.84957 27.1387 5.94537C27.1387 5.94537 27.4794 4.37873 28.6719 4.23221C29.8701 4.08006 30.1994 4.11951 30.6083 3.97299C31.0171 3.82647 31.7327 4.50835 32.0336 3.52779C32.0336 3.52779 32.3175 3.20657 32.238 3.06569C32.238 3.06569 32.363 2.80082 32.3346 2.64867C32.3005 2.50215 31.7554 2.20347 31.6361 1.96115C31.5112 1.72446 31.5737 1.29618 30.2392 0.670647L30.2562 0.676282Z" fill="#1D1D1B"/>
<path d="M32.3506 9.32654V39.9492H41.5442V24.6154V13.8405L32.3506 9.32654Z" fill="#4F8A8B"/>
<path d="M41.5506 13.8406H41.5449V24.6154H41.5506V13.8406Z" fill="#4F8A8B"/>
<path d="M42.4017 9.32654H41.5499H41.5442H40.7719H32.3506L41.5442 13.8405H41.5499H44.4006H57.3194V24.6154H50.7435H45.4625H41.5499L50.7435 29.1293H66.5982V9.32654H42.4017Z" fill="#1D1D1B"/>
<path d="M27.0864 32.2401V21.4652L17.8984 16.9513V39.9493H27.0864V32.2401Z" fill="#4F8A8B"/>
<path d="M12.6294 29.0899L3.44141 24.5759V39.9493H12.6294V39.8647V29.0899Z" fill="#4F8A8B"/>
</g>
<defs>
<clipPath id="clip0_404_59">
<rect width="300" height="40" fill="white"/>
</clipPath>
</defs>
</svg>
