<svg width="168" height="20" viewBox="0 0 168 20" fill="none" xmlns="http://www.w3.org/2000/svg">
<path d="M47.4907 0V19.9633H41.4434V11.4658H30.7885V19.9633H24.6265V0H47.4907ZM30.8736 2.93891V8.5012H41.299V2.93891H30.8736Z" fill="white"/>
<path d="M72.312 20L49.792 5.16963V0.032959L66.3794 10.8126V0.032959H72.312V20Z" fill="white"/>
<path d="M73.4888 0.0294189L77.9114 2.96466H83.5737V6.72911V10.688V19.9927H89.5914V10.7321V6.68875V2.96466H95.1909L99.6135 0.0294189H73.4888Z" fill="#FBD46D"/>
<path d="M167.033 0.0294189V19.9927H160.985V11.4952H150.33V19.9927H144.168V0.0294189H167.036H167.033ZM150.416 2.96833V8.53062H160.841V2.96466H150.416V2.96833Z" fill="white"/>
<path d="M5.99101 2.9646H5.9873V9.97983H5.99101V2.9646Z" fill="#FBD46D"/>
<path d="M0 19.9633H5.98807V9.98351V8.80942L0 4.82849V19.9633Z" fill="white"/>
<path d="M0 0.0294189V4.82854L5.98807 8.80947V2.96466L0 0.0294189Z" fill="white"/>
<path d="M22.3202 12.9188V0.0294189H6.5469H5.99547H5.98807H5.48474H0L5.98807 2.96466H5.99547H7.84962H16.2692V9.98356H11.9835H8.54169H7.7571L12.176 12.9188H22.3202Z" fill="white"/>
<path d="M131.371 12.926H137.877H139.295V0.032959H123.525H122.97H122.966H122.463H118.481L122.9 2.97187H124.828H133.248V9.85135V9.9871H132.2H128.962H125.52H122.97H119.924L135.005 20H142.059L131.371 12.926Z" fill="white"/>
<path d="M113.44 9.9762H105.82V12.9114H117.859L113.44 9.9762Z" fill="white"/>
<path d="M124.079 17.061H106.815V12.2913V11.4988V8.56351V6.50884V2.97187H116.522L112.103 0.032959H100.764V20H128.498L124.079 17.061Z" fill="white"/>
</svg>
