<svg width="30" height="30" viewBox="0 0 30 30" fill="none" xmlns="http://www.w3.org/2000/svg">
<path d="M24.9539 5.17657C24.9539 5.17657 27.1741 4.31085 26.989 6.4133C26.9274 7.27903 26.3724 10.309 25.9406 13.5864L24.4605 23.2948C24.4605 23.2948 24.3372 24.717 23.2271 24.9644C22.117 25.2117 20.4519 24.0987 20.1435 23.8513C19.8968 23.6658 15.5182 20.8831 13.9763 19.5227C13.5446 19.1517 13.0513 18.4096 14.038 17.5439L20.5136 11.3603C21.2536 10.6182 21.9937 8.8868 18.9101 10.9893L10.2761 16.8638C10.2761 16.8638 9.28932 17.4821 7.4392 16.9256L3.43053 15.6889C3.43053 15.6889 1.95041 14.7613 4.47894 13.8337C10.6461 10.9274 18.2317 7.9592 24.9539 5.17657Z" fill="#222831"/>
</svg>
