<svg width="30" height="30" viewBox="0 0 30 30" fill="none" xmlns="http://www.w3.org/2000/svg">
<path d="M26.4569 8.09997C26.1869 9.05097 25.8228 9.87875 25.3667 10.6304L25.3857 10.5968C24.9377 11.4331 24.4026 12.3994 23.7805 13.4957C23.247 14.3611 22.9647 14.8092 22.9333 14.8398C22.7953 15.0336 22.6993 15.2711 22.6663 15.5321L22.6653 15.5399C22.6923 15.7774 22.7903 15.9846 22.9333 16.1392L23.3334 16.6388C25.4737 19.1023 26.6776 20.8004 26.945 21.7331C26.98 21.8362 27 21.9549 27 22.0792C27 22.2966 26.938 22.4971 26.833 22.6617L26.835 22.6584C26.6589 22.8611 26.4129 22.9866 26.1409 22.9866C26.1108 22.9866 26.0798 22.9854 26.0508 22.9821H26.0548H23.4234C23.4224 22.9821 23.4204 22.9821 23.4184 22.9821C23.0813 22.9821 22.7713 22.8499 22.5283 22.6304L22.5313 22.6326C22.1772 22.3066 21.8621 21.9538 21.5801 21.5707L21.5711 21.5573C21.1103 20.974 20.7016 20.4831 20.3449 20.0843C19.1567 18.8193 18.2799 18.1868 17.7145 18.1868C17.6934 18.1845 17.6694 18.1834 17.6444 18.1834C17.4794 18.1834 17.3254 18.2405 17.1984 18.338L17.2014 18.3358C17.0973 18.4814 17.0343 18.6696 17.0343 18.8723C17.0343 18.9126 17.0363 18.9507 17.0413 18.9899V18.9854C17.0143 19.3372 16.9983 19.746 16.9983 20.1593C16.9983 20.2926 17.0003 20.4248 17.0033 20.557V20.5379V21.8362C17.0133 21.8888 17.0193 21.9493 17.0193 22.0109C17.0193 22.282 16.9093 22.5239 16.7373 22.6841L16.7363 22.6852C16.3492 22.8835 15.8971 23 15.4201 23C15.3181 23 15.218 22.9944 15.119 22.9843L15.132 22.9854C13.5578 22.9518 12.0975 22.4355 10.8563 21.5651L10.8913 21.5875C9.38006 20.5592 8.12785 19.2207 7.1737 17.639L7.14669 17.592C6.24054 16.2456 5.3954 14.7244 4.67528 13.1204L4.60527 12.9479C4.1842 12.0496 3.74812 10.9451 3.37206 9.8093L3.31205 9.60207C3.15903 9.09129 3.04801 8.49762 3.002 7.88267L3 7.85466C3 7.28862 3.29738 7.0056 3.89215 7.0056H6.52259C6.54659 7.00336 6.5746 7.00224 6.6036 7.00224C6.85164 7.00224 7.08068 7.09745 7.26171 7.25763L7.25971 7.25539C7.45974 7.5007 7.60777 7.80202 7.68078 8.13806L7.68378 8.1515C8.16786 9.68272 8.68095 10.9686 9.27104 12.2008L9.20403 12.0473C9.68611 13.1339 10.2192 14.0692 10.8273 14.9328L10.8043 14.8981C11.3377 15.6314 11.7538 15.998 12.0525 15.998C12.0615 15.9992 12.0725 15.9992 12.0845 15.9992C12.2325 15.9992 12.3616 15.9095 12.4316 15.7751L12.4326 15.7729C12.5066 15.5601 12.5496 15.3125 12.5496 15.0549C12.5496 15 12.5476 14.9451 12.5436 14.8913V14.8981V10.5531C12.5226 10.0412 12.4106 9.56287 12.2235 9.13386L12.2315 9.15514C12.1075 8.85942 11.9585 8.60403 11.7815 8.37665L11.7845 8.38113C11.6204 8.19742 11.5084 7.95659 11.4734 7.68776L11.4724 7.68104C11.4724 7.49062 11.5504 7.31924 11.6724 7.20722L11.6734 7.2061C11.7945 7.08177 11.9565 7.00672 12.1335 7.00672H12.1415H16.2882C16.3102 7.00336 16.3352 7.00224 16.3612 7.00224C16.5563 7.00224 16.7313 7.10081 16.8473 7.25539L16.8483 7.25651C16.9513 7.4671 17.0123 7.71913 17.0123 7.98572C17.0123 8.02828 17.0103 8.06973 17.0073 8.11117V8.10557V13.9C17.0053 13.9269 17.0043 13.9583 17.0043 13.9896C17.0043 14.1957 17.0553 14.3895 17.1434 14.5542L17.1414 14.5497C17.2144 14.6707 17.3364 14.7491 17.4744 14.7491H17.4754C17.6514 14.7356 17.8115 14.6707 17.9465 14.5676L17.9435 14.5699C18.2155 14.3604 18.4496 14.1218 18.6526 13.8519L18.6566 13.8463C19.2637 13.0778 19.8238 12.2288 20.3119 11.326L20.3509 11.2475C20.6949 10.6091 21.067 9.82274 21.4041 9.01512L21.4661 8.85046L21.9122 7.8513C22.0672 7.35172 22.4832 7 22.9723 7C22.9913 7 23.0103 7 23.0293 7.00112H23.0263H25.6578C26.3686 7.00112 26.6353 7.3674 26.4579 8.09997H26.4569Z" fill="#222831"/>
</svg>
