<svg width="30" height="30" viewBox="0 0 30 30" fill="none" xmlns="http://www.w3.org/2000/svg">
<path d="M23.4937 6.48906C22.3885 5.37858 21.0722 4.49819 19.6217 3.89918C18.1713 3.30017 16.6155 2.99453 15.0452 3.00007C8.46509 3.00007 3.10246 8.33706 3.09643 14.889C3.09643 16.9875 3.64792 19.029 4.6891 20.8365L3 27L9.3345 25.347C11.0869 26.2964 13.0501 26.794 15.0452 26.7945H15.0512C21.6328 26.7945 26.994 21.4575 27 14.8995C27.0015 13.3366 26.6923 11.7888 26.0903 10.3454C25.4883 8.90191 24.6053 7.59131 23.4922 6.48906H23.4937ZM15.0452 24.7815C13.2657 24.7821 11.5189 24.3054 9.98845 23.4015L9.62682 23.1855L5.86891 24.1665L6.87242 20.517L6.63737 20.1405C5.6426 18.566 5.11649 16.7431 5.12004 14.883C5.12004 9.44405 9.57559 5.00707 15.0512 5.00707C16.3557 5.00474 17.6478 5.25948 18.8529 5.7566C20.058 6.25373 21.1523 6.9834 22.0728 7.90356C22.9965 8.82013 23.7288 9.90969 24.2274 11.1094C24.726 12.3091 24.9811 13.5952 24.9779 14.8935C24.9719 20.352 20.5163 24.7815 15.0452 24.7815ZM20.4922 17.3805C20.1954 17.232 18.7293 16.5135 18.4535 16.4115C18.1793 16.314 17.9789 16.263 17.783 16.56C17.5826 16.8555 17.01 17.529 16.8383 17.7225C16.6665 17.922 16.4887 17.9445 16.1904 17.7975C15.8935 17.6475 14.9307 17.3355 13.7916 16.32C12.9026 15.5325 12.3074 14.5575 12.1296 14.262C11.9578 13.965 12.113 13.806 12.2622 13.6575C12.3933 13.5255 12.559 13.3095 12.7082 13.1385C12.8589 12.9675 12.9086 12.8415 13.0065 12.6435C13.1045 12.4425 13.0578 12.2715 12.9839 12.123C12.9086 11.9745 12.3134 10.5091 12.0618 9.91805C11.8207 9.33455 11.5751 9.41555 11.3913 9.40805C11.2195 9.39755 11.0191 9.39755 10.8187 9.39755C10.6673 9.4013 10.5184 9.43614 10.3813 9.4999C10.2441 9.56366 10.1216 9.65495 10.0216 9.76805C9.74736 10.0651 8.98041 10.7835 8.98041 12.249C8.98041 13.7145 10.0502 15.123 10.2009 15.3225C10.3486 15.522 12.3014 18.5205 15.2983 19.8105C16.0065 20.118 16.564 20.2995 16.9995 20.4375C17.7152 20.6655 18.3616 20.631 18.8769 20.5575C19.4495 20.4705 20.6414 19.8375 20.893 19.143C21.1401 18.447 21.1401 17.853 21.0648 17.7285C20.991 17.6025 20.7906 17.529 20.4922 17.3805Z" fill="#222831"/>
</svg>
